<svg width="1250" height="368" viewBox="0 0 1250 368" fill="none" xmlns="http://www.w3.org/2000/svg">
<g filter="url(#filter0_d_1049_9)">
<path d="M30 119.2C31.6 136 35.2 156.5 40.8 180.7C46.4 204.7 50.4 220.1 52.8 226.9C55.2 233.7 56.5 237.6 56.7 238.6C57.1 239.4 57.4 240.1 57.6 240.7C57.8 241.1 58 241.8 58.2 242.8C58.6 243.6 58.9 244.2 59.1 244.6C59.3 245 59.6 245.6 60 246.4C60.4 247 60.8 247.5 61.2 247.9C61.6 248.1 62 248.4 62.4 248.8C63.6 249.6 64.8 250 66 250C67.4 250 68.9 247.6 70.5 242.8C72.1 237.6 75.1 225.2 79.5 205.6C90.7 155.6 102.2 120.2 114 99.4C116.8 94.6 119.8 92.2 123 92.2C129 92.2 132 95.2 132 101.2C132 103.2 131.4 105.3 130.2 107.5C118.2 128.3 106.8 163.4 96 212.8C91.6 232.2 88.6 244.6 87 250C83 262 76 268 66 268C53.6 268 44.6 259.3 39 241.9C34.4 228.7 29.2 209.6 23.4 184.6C17.6 159.4 13.9 138.8 12.3 122.8C12.1 121.6 12 120.4 12 119.2C12 113.2 15 110.2 21 110.2C26.4 110.2 29.4 113.2 30 119.2ZM402.012 238L403.512 136C403.512 122.4 403.212 113.3 402.612 108.7C402.212 104.1 402.012 101.6 402.012 101.2C402.012 95.2 405.012 92.2 411.012 92.2C413.212 92.2 415.212 93.1 417.012 94.9C424.812 92.3 431.312 91 436.512 91C441.912 91 451.212 93.1 464.412 97.3C477.812 101.3 490.712 107.5 503.112 115.9C515.712 124.1 522.012 132.6 522.012 141.4C522.012 154 519.312 166.1 513.912 177.7C508.712 189.1 502.912 198.3 496.512 205.3C490.312 212.3 482.012 221.1 471.612 231.7C461.412 242.3 454.812 249.5 451.812 253.3C449.012 256.9 447.112 259.3 446.112 260.5C445.312 261.5 444.712 262.2 444.312 262.6C443.912 263 443.412 263.6 442.812 264.4C442.212 265.2 441.612 265.8 441.012 266.2C440.612 266.4 440.012 266.7 439.212 267.1C438.212 267.7 436.812 268 435.012 268C429.012 268 426.012 264.9 426.012 258.7C426.012 256.9 428.712 252.6 434.112 245.8C439.512 239 447.112 230.7 456.912 220.9C466.712 210.9 474.612 202.8 480.612 196.6C486.612 190.2 492.012 182.1 496.812 172.3C501.612 162.5 504.012 152.4 504.012 142C504.012 135 494.312 127.8 474.912 120.4C455.512 112.8 442.212 109 435.012 109C432.812 109 430.412 109.5 427.812 110.5C425.212 111.3 422.912 111.7 420.912 111.7C421.312 117.3 421.512 125.4 421.512 136L420.012 238C420.012 244.6 420.512 251.2 421.512 257.8C422.512 264.4 423.012 267.8 423.012 268C423.012 274 420.012 277 414.012 277C409.612 277 406.612 274 405.012 268C403.012 258 402.012 248 402.012 238ZM363.012 115L360.012 199C360.012 209.4 360.512 220.3 361.512 231.7C362.712 242.9 363.712 249.8 364.512 252.4C365.512 255 366.012 257.2 366.012 259C366.012 265 363.012 268 357.012 268C353.012 268 350.012 265 348.012 259C344.012 247 342.012 227 342.012 199L345.012 115C345.012 109 348.012 106 354.012 106C360.012 106 363.012 109 363.012 115ZM559.141 127L557.941 110.5C557.941 104.3 560.941 101.2 566.941 101.2C572.341 101.2 575.341 104.2 575.941 110.2C576.741 115 577.141 121.2 577.141 128.8C577.141 136.4 575.941 155.4 573.541 185.8C571.141 216 569.941 234.8 569.941 242.2C569.941 249.4 570.941 254 572.941 256C575.141 258 578.541 259 583.141 259C616.141 259 639.541 256.7 653.341 252.1C657.541 250.7 659.941 250 660.541 250C666.541 250 669.541 253 669.541 259C669.541 263.4 666.541 266.6 660.541 268.6C643.741 274.2 617.941 277 583.141 277C562.341 277 551.941 266 551.941 244C551.941 235.4 553.141 215.8 555.541 185.2C557.941 154.6 559.141 135.2 559.141 127ZM706.141 118L701.941 223C701.941 235 724.941 241 770.941 241C776.941 241 779.941 244 779.941 250C779.941 256 776.941 259 770.941 259C712.941 259 683.941 247 683.941 223L688.141 118L686.941 101.5C686.941 95.3 689.941 92.2 695.941 92.2C701.341 92.2 704.341 95.2 704.941 101.2C705.741 106 706.141 111.6 706.141 118ZM985.395 172.3C997.995 169.3 1012.39 163.3 1028.59 154.3C1044.79 145.3 1052.89 137.2 1052.89 130C1052.89 116.8 1040.89 110.2 1016.89 110.2C1007.49 110.2 997.495 111.4 986.895 113.8C986.895 120.4 986.595 130.6 985.995 144.4C985.595 158 985.395 167.3 985.395 172.3ZM965.895 220L967.395 184C967.395 176.8 967.595 165.5 967.995 150.1C968.595 134.7 968.895 124.3 968.895 118.9C963.695 120.3 960.695 121 959.895 121C953.895 121 950.895 118 950.895 112C950.895 107.8 953.895 104.8 959.895 103C983.895 95.8 1003.19 92.2 1017.79 92.2C1032.59 92.2 1045.09 95.3 1055.29 101.5C1065.69 107.7 1070.89 117.2 1070.89 130C1070.89 149.4 1049.59 167.4 1006.99 184C1027.99 196.8 1044.89 209 1057.69 220.6C1062.09 224.6 1067.39 229.7 1073.59 235.9C1079.79 242.1 1082.89 249.8 1082.89 259C1082.89 265 1079.89 268 1073.89 268C1068.09 268 1065.19 265 1065.19 259C1065.19 254.8 1063.79 251.3 1060.99 248.5C1054.19 241.7 1048.59 236.3 1044.19 232.3C1032.79 221.9 1013.09 208.4 985.095 191.8L983.895 220L986.895 253C986.895 259 983.895 262 977.895 262C972.495 262 969.495 259 968.895 253C966.895 233 965.895 222 965.895 220ZM914.895 111.1L887.895 110.2C869.895 110.2 851.095 112.2 831.495 116.2C828.095 131.8 825.795 148.2 824.595 165.4C832.595 163.8 848.695 163 872.895 163C882.495 163 890.895 164.5 898.095 167.5C905.295 170.3 908.895 173.8 908.895 178C908.895 184 905.895 187 899.895 187C898.495 187 895.395 186 890.595 184C885.795 182 879.895 181 872.895 181C848.695 181 832.095 181.9 823.095 183.7C822.295 196.9 821.895 207.8 821.895 216.4C821.895 225 823.595 232.8 826.995 239.8C830.595 246.6 834.895 250 839.895 250C865.295 250 886.195 248 902.595 244C910.195 242 914.295 241 914.895 241C920.895 241 923.895 244 923.895 250C923.895 251.6 923.095 253.3 921.495 255.1C919.895 256.7 916.195 258.5 910.395 260.5C904.595 262.5 894.395 264.3 879.795 265.9C865.195 267.3 852.295 268 841.095 268C830.095 268 821.095 262.9 814.095 252.7C807.295 242.5 803.895 231.6 803.895 220C803.895 192.2 806.695 159.6 812.295 122.2C813.695 113.2 814.395 108.6 814.395 108.4C816.195 103.2 819.695 100.1 824.895 99.1C847.295 94.5 865.595 92.2 879.795 92.2C893.995 92.2 905.695 92.5 914.895 93.1C920.895 93.3 923.895 96.4 923.895 102.4C923.895 108.2 920.895 111.1 914.895 111.1ZM1168.25 268C1162.25 268 1159.25 265 1159.25 259C1159.25 258 1159.95 255.6 1161.35 251.8L1202.75 148C1195.15 152.4 1188.15 154.6 1181.75 154.6C1175.35 154.6 1170.05 154.1 1165.85 153.1C1161.65 152.1 1157.95 151 1154.75 149.8C1151.55 148.6 1148.15 146.7 1144.55 144.1C1141.15 141.5 1138.45 139.4 1136.45 137.8C1134.45 136.2 1131.95 133.7 1128.95 130.3C1125.95 126.7 1123.95 124.3 1122.95 123.1C1122.15 121.9 1120.45 119.5 1117.85 115.9C1115.25 112.3 1113.75 110.3 1113.35 109.9C1112.95 109.5 1112.25 108.2 1111.25 106C1110.25 103.8 1109.75 102.2 1109.75 101.2C1109.75 95.2 1112.65 92.2 1118.45 92.2C1120.65 92.2 1123.75 94.6 1127.75 99.4C1128.55 100.2 1131.25 103.6 1135.85 109.6C1140.45 115.6 1144.15 120.1 1146.95 123.1C1149.95 125.9 1154.35 128.9 1160.15 132.1C1166.15 135.1 1172.15 136.6 1178.15 136.6C1184.15 136.6 1190.45 134.5 1197.05 130.3C1203.85 126.1 1208.65 121 1211.45 115C1214.05 109 1217.15 106 1220.75 106C1226.75 106 1229.75 109 1229.75 115C1229.75 125.6 1226.45 138.8 1219.85 154.6L1177.55 259.9C1175.35 265.3 1172.25 268 1168.25 268Z" fill="#616161"/>
<path d="M198.141 133C204.141 133 207.141 136 207.141 142C207.141 146.8 204.141 149.8 198.141 151C189.941 152.6 183.841 158.4 179.841 168.4C176.041 178.2 174.141 189.6 174.141 202.6C174.141 215.4 178.841 226.5 188.241 235.9C197.641 245.3 209.441 250 223.641 250C237.841 250 251.141 243.8 263.541 231.4C275.941 218.8 282.141 205 282.141 190C282.141 172.4 279.441 155.4 274.041 139C271.241 130.6 267.141 123.7 261.741 118.3C256.341 112.9 249.441 110.2 241.041 110.2C232.641 110.2 225.841 111.7 220.641 114.7C215.441 117.7 211.941 119.2 210.141 119.2C204.141 119.2 201.141 116.2 201.141 110.2C201.141 107 204.141 103.6 210.141 100C213.341 98 218.241 96.2 224.841 94.6C231.441 93 237.541 92.2 243.141 92.2C253.341 92.2 262.341 95.2 270.141 101.2C277.741 107.2 283.641 115.2 287.841 125.2C296.041 144.6 300.141 166.2 300.141 190C300.141 210 292.141 228 276.141 244C260.141 260 242.641 268 223.641 268C204.641 268 188.641 261.5 175.641 248.5C162.641 235.5 156.141 219.5 156.141 200.5C156.141 181.3 159.841 165.9 167.241 154.3C174.641 142.5 183.441 135.6 193.641 133.6C195.641 133.2 197.141 133 198.141 133Z" fill="#E75D5D"/>
</g>
<path d="M214.6 208.5C213.1 208.5 212.05 208.2 211.45 207.6C209.15 205.1 208 195.4 208 178.5C208 167.9 209 159 211 151.8C211.8 149.3 213.3 146.8 215.5 144.3C219.8 139.5 226.8 137.1 236.5 137.1C244.3 137.1 251.5 140.05 258.1 145.95C264.7 151.75 268 158 268 164.7C268 175.4 264.3 184.65 256.9 192.45C251.5 198.05 245 203.65 237.4 209.25C229.8 214.85 225.2 218.35 223.6 219.75C222 221.25 220.9 222.3 220.3 222.9L218.95 224.25C217.75 225.45 216.3 226.05 214.6 226.05C211.6 226.05 210.1 224.5 210.1 221.4C210.1 219.4 216.45 213.6 229.15 204C235.55 199.2 240.55 195.3 244.15 192.3C247.85 189.2 251.25 185.2 254.35 180.3C257.45 175.4 259 170.55 259 165.75C259 160.85 256.5 156.35 251.5 152.25C246.5 148.15 241.75 146.1 237.25 146.1C232.85 146.1 229.55 146.5 227.35 147.3C223.05 148.8 220.4 151.5 219.4 155.4C217.8 161.5 217 169.55 217 179.55C217 189.55 217.6 196.95 218.8 201.75C219 202.95 219.1 203.7 219.1 204C219.1 207 217.6 208.5 214.6 208.5Z" fill="#E75D5D"/>
<defs>
<filter id="filter0_d_1049_9" x="12" y="91" width="1237.75" height="206" filterUnits="userSpaceOnUse" color-interpolation-filters="sRGB">
<feFlood flood-opacity="0" result="BackgroundImageFix"/>
<feColorMatrix in="SourceAlpha" type="matrix" values="0 0 0 0 0 0 0 0 0 0 0 0 0 0 0 0 0 0 127 0" result="hardAlpha"/>
<feOffset dx="10" dy="10"/>
<feGaussianBlur stdDeviation="5"/>
<feColorMatrix type="matrix" values="0 0 0 0 0 0 0 0 0 0 0 0 0 0 0 0 0 0 0.25 0"/>
<feBlend mode="normal" in2="BackgroundImageFix" result="effect1_dropShadow_1049_9"/>
<feBlend mode="normal" in="SourceGraphic" in2="effect1_dropShadow_1049_9" result="shape"/>
</filter>
</defs>
</svg>
