<svg width="300" height="300" viewBox="0 0 300 300" fill="none" xmlns="http://www.w3.org/2000/svg">
<path d="M108.183 130.292C104.054 154.869 125.961 242.12 137.922 283.533C254.911 294.716 315.249 164.455 271.993 89.7387C228.074 13.8791 150.948 2.24232 85.6943 29.1548L111.501 91.8278C132.883 81.5052 175.403 78.9245 193.836 81.1365C212.269 83.3485 232.177 98.0951 233.652 124.024C235.126 149.954 217.062 167.527 201.209 174.9C188.527 180.799 156.355 189.401 141.854 192.965C138.372 194.439 130.598 195.103 127.353 185.96C124.109 176.817 132.72 172.811 137.43 171.951C144.312 170.353 158.075 167.035 158.075 166.544C170.364 163.201 186.094 158.679 193.836 153.149C203.79 147.988 212.934 141.72 210.426 119.478C208.951 106.402 192.115 102.478 183.882 102.15C160.369 101.29 112.312 105.714 108.183 130.292Z" fill="#6DCAE2"/>
<path d="M85.6943 137.665C85.6943 126.23 90.1182 102.15 111.501 91.8277L85.6943 29.1548C33.4914 50.6848 16.5902 111.203 14.1734 137.665C8.88917 257.235 126.247 282.304 114.573 278.495C105.602 255.146 85.6943 153.149 85.6943 137.665Z" fill="#6A4CB0"/>
</svg>