<svg width="300" height="300" viewBox="0 0 300 300" fill="none" xmlns="http://www.w3.org/2000/svg">
<g clip-path="url(#clip0_1069_2)">
<path d="M116.187 125.024C117.597 125.925 119.023 126.939 119.977 127.655C118.713 132.319 116.187 141.863 116.187 142.718C116.187 143.787 105.108 132.028 101.416 127.655C97.7227 123.282 103.942 119.103 105.108 116.965C106.041 115.255 123.378 100.963 131.93 94.0312L140.676 106.47L116.187 125.024Z" fill="#FECD80"/>
<path d="M111.814 122.99C112.519 122.858 114.34 123.844 116.187 125.024M116.187 125.024C117.597 125.925 119.023 126.939 119.977 127.655C118.713 132.319 116.187 141.863 116.187 142.718C116.187 143.787 105.108 132.028 101.416 127.655C97.7227 123.282 103.942 119.103 105.108 116.965C106.041 115.255 123.378 100.963 131.93 94.0312L140.676 106.47L116.187 125.024Z" stroke="black"/>
<path d="M140.567 57.0577C138.323 60.7172 126.874 73.1674 121.43 78.9351C123.727 78.4379 128.598 77.1253 129.701 75.8524C127.252 83.7561 127.107 94.0578 127.781 97.2327C128.507 100.653 129.513 115.563 129.926 122.591L136.277 113.044L139.989 133.927L141.623 129.054L144.691 138.004L150.053 133.927L155.084 143.474L158.549 138.004L162.756 145.264L167.622 136.811C167.98 139.297 168.711 144.468 168.777 145.264C168.843 146.059 172.104 140.756 173.726 138.004L176.943 143.474L181.892 132.137L184.944 140.192L188.326 129.85C188.849 131.607 189.943 135.299 190.141 136.015C190.339 136.731 194.073 125.073 195.915 119.154C197.27 121.138 199.378 123.829 201.359 125.176C200.782 124.182 201.277 111.453 203.669 107.276C203.999 109.822 209.36 112.779 212 113.939C210.103 111.387 206.243 104.472 205.979 97.2327C206.44 87.9248 200.858 70.814 198.009 63.422C200.116 63.3889 204.543 63.0243 205.401 61.8309C202.96 62.7856 194.705 56.9914 190.883 53.9749C188.766 52.0524 182.074 47.4515 172.241 44.4284C159.951 40.6496 143.371 52.4833 140.567 57.0577Z" fill="#404040"/>
<path d="M192.038 57.1571C193.499 57.8998 196.031 59.9412 198.009 63.422M198.009 63.422C200.116 63.3889 204.543 63.0243 205.401 61.8309C202.96 62.7856 194.705 56.9914 190.883 53.9749C188.766 52.0524 182.074 47.4515 172.241 44.4284C159.951 40.6496 143.371 52.4833 140.567 57.0577C138.323 60.7172 126.874 73.1674 121.43 78.9351C123.727 78.4379 128.598 77.1253 129.701 75.8524M198.009 63.422C200.858 70.814 206.44 87.9248 205.979 97.2327C206.243 104.472 210.103 111.387 212 113.939C209.36 112.779 203.999 109.822 203.669 107.276C201.277 111.453 200.782 124.182 201.359 125.176C199.378 123.829 197.27 121.138 195.915 119.154M194.925 117.618C195.172 118.031 195.51 118.561 195.915 119.154M195.915 119.154C194.073 125.073 190.339 136.731 190.141 136.015C189.943 135.299 188.849 131.607 188.326 129.85L184.944 140.192L181.892 132.137L176.943 143.474L173.726 138.004C172.104 140.756 168.843 146.059 168.777 145.264C168.711 144.468 167.98 139.297 167.622 136.811L162.756 145.264L158.549 138.004L155.084 143.474L150.053 133.927L144.691 138.004L141.623 129.054M140.567 125.972L141.623 129.054M141.623 129.054L139.989 133.927L136.277 113.044L129.926 122.591C129.513 115.563 128.507 100.653 127.781 97.2327C127.107 94.0578 127.252 83.7561 129.701 75.8524M133.143 68.8914C131.677 70.6584 130.551 73.1112 129.701 75.8524" stroke="black"/>
<path d="M88 307.927L127.746 204.141L168.367 214.15L172.934 280.329C170.634 291.601 165.957 314.633 165.646 316.576C165.335 318.52 153.79 315.766 148.056 314.147C148.413 303.684 148.911 282.272 148.056 280.329C146.987 277.899 141.837 246.899 141.157 244.858C140.612 243.226 118.384 290.37 107.339 314.147L88 307.927Z" fill="#404040" stroke="black"/>
<path d="M165.937 143.693C165.548 142.235 166.617 133.684 167.2 133.295C162.827 131.805 154.178 129.719 154.567 133.295C155.053 137.765 148.251 141.458 146.696 141.749C145.452 141.983 131.762 137.312 119.485 132.42L114.82 140.292L138.63 153.119L127.551 207.539L173.517 219.201L179.25 190.97V211.329C182.069 218.261 187.88 232.689 188.58 234.944C189.279 237.198 189.713 243.592 189.843 246.508L193.147 248.84C193.633 248.497 194.881 247.578 195.274 247.207C197.027 248.949 199.111 250.62 199.658 250.784C200.63 251.075 200.63 248.451 200.706 248.257C200.772 248.262 200.844 248.262 200.921 248.257C202.476 248.16 202.768 244.856 204.42 244.856C206.072 244.856 205.489 242.912 206.752 241.94C208.015 240.969 201.602 236.596 200.144 236.11C198.686 235.624 191.786 210.649 190.62 208.22C189.454 205.79 186.928 151.759 185.664 151.273C184.401 150.787 166.325 145.151 165.937 143.693Z" fill="#FECD80"/>
<path d="M200.144 246.508C199.901 247.085 199.703 248.186 200.706 248.257M200.706 248.257C200.772 248.262 200.844 248.262 200.921 248.257C202.476 248.16 202.768 244.856 204.42 244.856C206.072 244.856 205.489 242.912 206.752 241.94C208.015 240.969 201.602 236.596 200.144 236.11C198.686 235.624 191.786 210.649 190.62 208.22C189.454 205.79 186.928 151.759 185.664 151.273C184.401 150.787 166.325 145.151 165.937 143.693C165.548 142.235 166.617 133.684 167.2 133.295C162.827 131.805 154.178 129.719 154.567 133.295C155.053 137.765 148.251 141.458 146.696 141.749C145.452 141.983 131.762 137.312 119.485 132.42L114.82 140.292L138.63 153.119L127.551 207.539L173.517 219.201L179.25 190.97M200.706 248.257C200.63 248.451 200.63 251.075 199.658 250.784C198.686 250.492 192.855 245.439 192.661 243.69M195.381 247.091C195.226 247.324 193.698 248.451 193.147 248.84L189.843 246.508C189.713 243.593 189.279 237.198 188.58 234.944C187.88 232.689 182.069 218.261 179.25 211.329V190.97M179.25 170.611V190.97" stroke="black"/>
<path d="M137.565 128.52C130.18 121.834 127.362 101.828 126.876 92.6613C125.645 87.6728 124.485 75.2858 129.694 65.6457C136.205 53.5955 160.888 50.3886 174.299 53.304C187.71 56.2193 200.246 69.3384 202.869 77.6958C205.493 86.0531 201.8 113.36 198.885 120.649C195.97 127.937 182.17 136.392 174.299 137.169C166.427 137.946 146.797 136.878 137.565 128.52Z" fill="url(#paint0_linear_1069_2)" stroke="black"/>
<path d="M137.305 105.349C140.991 101.803 145.605 91.1974 147.785 86.1794L147.961 85.7016C150.965 94.7749 157.194 103.681 168.993 108.479C173.748 110.73 181.83 107.943 185.277 106.269C187.704 107.263 189.766 107.403 191.045 106.439C189.497 105.525 185.618 102.57 185.277 102.383C189.774 104.902 194.211 105.305 196.953 104.891C197.168 104.957 197.38 105.019 197.586 105.076L201.209 109.957L204.304 104.294C205.922 100.46 205.64 98.9825 207.047 91.6312C208.055 86.3628 208.63 79.5316 207.047 70.5624C206.822 63.7247 200.998 53.3977 196.953 49.9156C173.741 32.7158 148.243 42.0721 140.118 47.0666C130.918 52.7225 123.105 69.0148 121.091 77.8082C119.921 82.9203 120.806 87.9209 121.892 91.2443L121.83 92.0885C121.56 95.2424 120.325 102.324 117.539 105.419C119.565 105.644 122.094 101.832 123.105 99.897C123.963 102.265 125.528 104.892 126.461 106.263C126.841 108.479 127.674 111.109 128.149 112.419C127.716 113.702 127.104 115.047 126.261 116.182C128.4 116.042 130.863 112.044 131.827 110.062C134.811 115.438 139.182 120.585 144.761 121.705C140.069 117.929 137.818 111.45 136.868 105.912L137.305 105.349Z" fill="url(#paint1_linear_1069_2)"/>
<path d="M136.285 98.3846C136.223 100.252 136.36 102.947 136.868 105.912M143.565 53.1516C126.859 63.9498 127.211 92.8937 127.211 96.9776C127.211 98.9452 128.79 104.554 131.769 109.957M131.827 110.062C134.811 115.438 139.182 120.585 144.761 121.705C140.069 117.929 137.818 111.45 136.868 105.912M131.827 110.062C130.863 112.044 128.4 116.042 126.261 116.182C127.104 115.047 127.716 113.702 128.149 112.419M131.827 110.062C131.808 110.027 131.788 109.992 131.769 109.957M131.827 110.062L131.769 109.957M129.04 108.303C129 108.823 128.892 109.592 128.69 110.484C128.555 111.086 128.377 111.744 128.149 112.419M128.149 112.419C127.674 111.109 126.841 108.479 126.461 106.263M126.261 104.294C126.261 104.867 126.337 105.543 126.461 106.263M126.461 106.263C125.528 104.892 123.963 102.265 123.105 99.897M122.498 96.9776C122.472 97.803 122.716 98.8232 123.105 99.897M123.105 99.897C122.094 101.832 119.565 105.644 117.539 105.419C120.325 102.324 121.56 95.2424 121.83 92.0885L121.892 91.2443M123.105 94.1989C122.738 93.5068 122.301 92.4942 121.892 91.2443M174.304 60.9952C179.732 66.7988 191.094 81.0511 193.12 91.6312C195.146 102.211 199.357 105.419 201.209 105.701C200.288 105.667 199.044 105.48 197.586 105.076M180.705 92.6161C185.918 99.9767 192.351 103.475 196.953 104.891M196.953 104.891C194.211 105.305 189.774 104.902 185.277 102.383M196.953 104.891C197.168 104.957 197.38 105.019 197.586 105.076M172.897 86.2146C175.865 94.8616 180.603 99.765 185.277 102.383M185.277 102.383C185.618 102.57 189.497 105.525 191.045 106.439C189.766 107.403 187.704 107.263 185.277 106.269M164.526 79.5316C166.525 91.7099 177.688 103.161 185.277 106.269M146.132 62.7187C145.166 68.2568 145.099 77.0549 147.961 85.7016M185.277 106.269C181.83 107.943 173.748 110.73 168.993 108.479C157.194 103.681 150.965 94.7749 147.961 85.7016M147.961 85.7016L147.785 86.1794C145.605 91.1974 140.991 101.803 137.305 105.349L136.868 105.912M121.892 91.2443C120.806 87.9209 119.921 82.9203 121.091 77.8082C123.105 69.0148 130.918 52.7225 140.118 47.0666C148.243 42.0721 173.741 32.7158 196.953 49.9156C200.998 53.3977 206.822 63.7247 207.047 70.5624C208.63 79.5316 208.055 86.3628 207.047 91.6312C205.64 98.9825 205.922 100.46 204.304 104.294L201.209 109.957L197.586 105.076" stroke="black"/>
<path d="M136.398 109.966C139.573 106.889 147.496 101.356 153.793 103.844C149.673 103.844 140.48 107.926 136.398 109.966Z" fill="black" stroke="black"/>
<path d="M176.43 103.749C182.779 103.555 195.807 104.196 197.129 108.317C194.33 107.306 182.163 104.851 176.43 103.749Z" fill="black" stroke="black"/>
<path d="M134.258 88.4931C136.299 88.7847 151.458 87.0355 152.819 77.512M174.49 75.1797C178.571 80.4273 188.464 89.5815 195.383 84.2173" stroke="black"/>
<path d="M173.523 120.464C175.466 127.073 167.303 132.806 166.137 133.778C164.388 134.75 160.89 134.167 158.266 132.806C153.158 130.158 154.119 120.043 155.447 114.828C158.654 115.444 166.759 117.433 173.523 120.464Z" fill="#FFA3A3"/>
<path d="M166.137 133.778C167.303 132.806 175.466 127.073 173.523 120.464C166.759 117.433 158.654 115.444 155.447 114.828C154.119 120.043 153.158 130.158 158.266 132.806" stroke="black"/>
<path d="M151.272 137.47L160.309 144.467C160.568 145.309 161.164 147.46 161.475 149.326C161.009 146.216 161.67 144.791 162.059 144.467L169.541 140.483L172.943 143.787L171.833 144.467C176.381 145.569 185.964 148.471 187.908 151.27C190.337 154.768 192.573 186.934 190.24 190.919C188.453 193.972 182.539 194.653 179.453 194.62C179.745 204.367 179.59 223.998 176.635 224.542C173.681 225.087 138.8 213.756 121.729 208.022L131.059 176.245C130.832 171.612 130.514 162.095 131.059 161.085C131.357 160.53 129.523 157.12 127.255 153.311L108.805 144.467C111.558 138.215 117.531 125.906 119.397 126.684C121.263 127.461 130.087 132.644 134.265 135.138C139.319 135.915 149.513 137.636 149.863 138.296L151.272 137.47Z" fill="#E75D5D"/>
<path d="M148.454 139.122L149.863 138.296M160.309 144.467L151.272 137.47L149.863 138.296M160.309 144.467L156.228 148.354L147.87 139.122M160.309 144.467C160.568 145.309 161.164 147.46 161.475 149.326C161.009 146.216 161.67 144.791 162.059 144.467M162.059 144.467C162.292 144.467 163.387 147.707 163.905 149.326L171.833 144.467M162.059 144.467L169.541 140.483L172.943 143.787L171.833 144.467M171.833 144.467C176.381 145.569 185.964 148.471 187.908 151.27C190.337 154.768 192.573 186.934 190.24 190.919C188.453 193.972 182.539 194.653 179.453 194.62M186.062 161.085C184.507 165.523 181.28 174.768 180.814 176.245C180.348 177.722 179.453 189.105 179.065 194.611C179.189 194.615 179.318 194.618 179.453 194.62M179.453 194.62C179.745 204.367 179.59 223.998 176.635 224.542C173.681 225.087 138.8 213.756 121.729 208.022L131.059 176.245C130.832 171.612 130.514 162.095 131.059 161.085C131.357 160.53 129.523 157.12 127.255 153.311M121.729 144.467C123.235 146.776 125.391 150.179 127.255 153.311M127.255 153.311L108.805 144.467C111.558 138.215 117.531 125.906 119.397 126.684C121.263 127.461 130.087 132.644 134.265 135.138C139.319 135.915 149.513 137.636 149.863 138.296" stroke="black"/>
<rect x="77" y="296" width="109" height="4" fill="#D9D9D9"/>
</g>
<defs>
<linearGradient id="paint0_linear_1069_2" x1="157.196" y1="144.652" x2="158.362" y2="112.972" gradientUnits="userSpaceOnUse">
<stop stop-color="#FED698"/>
<stop offset="1" stop-color="#FECD80"/>
</linearGradient>
<linearGradient id="paint1_linear_1069_2" x1="162.785" y1="40" x2="162.803" y2="67.2912" gradientUnits="userSpaceOnUse">
<stop stop-color="#606060"/>
<stop offset="1" stop-color="#404040"/>
</linearGradient>
<clipPath id="clip0_1069_2">
<rect width="300" height="300" fill="white"/>
</clipPath>
</defs>
</svg>
